<svg xmlns="http://www.w3.org/2000/svg" width="25.595" height="25" viewBox="0 0 25.595 25"><defs><style>.a{fill:#01d167;}</style></defs><path class="a" d="M25.073,15.759c0,.071,0,.142-.073.142a.159.159,0,0,1-.147-.142c-.22-.284-11.388-12.08-11.9-12.506-.22-.213-.294-.142-.514.071C12.363,3.395.754,15.617.607,15.83.534,15.9.46,15.9.46,15.759a11.641,11.641,0,0,1-.441-3.908,11.032,11.032,0,0,1,1.616-5.4A12.217,12.217,0,0,1,10.011.339,12.62,12.62,0,0,1,21.988,3.821a11.636,11.636,0,0,1,3.453,6.68,9.408,9.408,0,0,1,.147,2.061A16.11,16.11,0,0,1,25.073,15.759Z" transform="translate(0 0)"/><path class="a" d="M.085,9.717c-.073-.071-.147-.142,0-.284S8.828.266,9.048.053c.073-.071.147-.071.147,0,.294.355,8.743,9.309,8.964,9.451.073.071.073.142-.073.142A9.965,9.965,0,0,1,16.469,11a12.563,12.563,0,0,1-6.319,2.274,6.53,6.53,0,0,1-1.176.071A12.7,12.7,0,0,1,.085,9.717Z" transform="translate(3.682 11.656)"/></svg>